<svg  xmlns="http://www.w3.org/2000/svg" style='display: none' >
<defs>
<symbol id="icon-google" viewBox="0 0 32 32">
<path d="M29 0h-26c-1.65 0-3 1.35-3 3v26c0 1.65 1.35 3 3 3h26c1.65 0 3-1.35 3-3v-26c0-1.65-1.35-3-3-3zM16.238 28c-6.631 0-12-5.369-12-12s5.369-12 12-12c3.238 0 5.95 1.181 8.037 3.138l-3.256 3.138c-0.894-0.856-2.45-1.85-4.781-1.85-4.1 0-7.438 3.394-7.438 7.575s3.344 7.575 7.438 7.575c4.75 0 6.531-3.413 6.806-5.175h-6.806v-4.113h11.331c0.1 0.6 0.188 1.2 0.188 1.988 0.006 6.856-4.588 11.725-11.519 11.725z"></path>
</symbol>
<symbol id="icon-eye" viewBox="0 0 20 20">
<path fill="none" stroke="#f6b83d" style="stroke: var(--color1, #f6b83d)" stroke-linejoin="round" stroke-linecap="round" stroke-miterlimit="4" stroke-width="1.8182" d="M0.833 10c0 0 3.333-6.667 9.167-6.667s9.167 6.667 9.167 6.667-3.333 6.667-9.167 6.667c-5.833 0-9.167-6.667-9.167-6.667z"></path>
<path fill="none" stroke="#f6b83d" style="stroke: var(--color1, #f6b83d)" stroke-linejoin="round" stroke-linecap="round" stroke-miterlimit="4" stroke-width="1.8182" d="M10 12.5c1.381 0 2.5-1.119 2.5-2.5s-1.119-2.5-2.5-2.5c-1.381 0-2.5 1.119-2.5 2.5s1.119 2.5 2.5 2.5z"></path>
</symbol>
<symbol id="icon-eye-off" viewBox="0 0 20 20">
<path fill="none" stroke="#f6b83d" style="stroke: var(--color1, #f6b83d)" stroke-linejoin="round" stroke-linecap="round" stroke-miterlimit="4" stroke-width="1.8182" d="M14.951 14.95c-1.425 1.086-3.159 1.687-4.95 1.717-5.833 0-9.167-6.667-9.167-6.667 1.037-1.932 2.474-3.619 4.217-4.95M8.251 3.533c0.574-0.134 1.161-0.201 1.75-0.2 5.833 0 9.167 6.667 9.167 6.667-0.506 0.946-1.109 1.837-1.8 2.658M11.768 11.767c-0.229 0.246-0.505 0.443-0.812 0.579s-0.638 0.21-0.973 0.216c-0.336 0.006-0.669-0.056-0.98-0.182s-0.594-0.313-0.831-0.55c-0.237-0.237-0.425-0.52-0.55-0.831s-0.187-0.645-0.182-0.98c0.006-0.336 0.079-0.667 0.216-0.973s0.334-0.583 0.579-0.812"></path>
<path fill="none" stroke="#f6b83d" style="stroke: var(--color1, #f6b83d)" stroke-linejoin="round" stroke-linecap="round" stroke-miterlimit="4" stroke-width="1.8182" d="M0.835 0.833l18.333 18.333"></path>
</symbol>
</defs>
</svg>
